<?xml version="1.0" encoding="utf-8"?>
<!-- Generator: Adobe Illustrator 22.1.0, SVG Export Plug-In . SVG Version: 6.00 Build 0)  -->
<svg version="1.1" id="Layer_1" xmlns="http://www.w3.org/2000/svg" xmlns:xlink="http://www.w3.org/1999/xlink" x="0px" y="0px"
	 viewBox="0 0 512 512" style="enable-background:new 0 0 512 512;" xml:space="preserve">
<g>
	<path d="M476.4,166c0,0-4.4-31-17.9-44.6c-17.1-17.9-36.3-18-45.1-19.1C350.5,97.7,256,97.7,256,97.7h-0.2c0,0-94.5,0-157.4,4.6
		c-8.8,1.1-28,1.2-45.1,19.1C39.8,135,35.5,166,35.5,166S31,202.4,31,238.9V273c0,36.4,4.5,72.9,4.5,72.9s4.4,31,17.8,44.7
		c17.1,17.9,39.6,17.3,49.7,19.2c36,3.4,153,4.5,153,4.5s94.6-0.2,157.5-4.7c8.8-1,28-1.2,45.1-19.1c13.5-13.6,17.9-44.7,17.9-44.7
		s4.5-36.4,4.5-72.9v-34.1C480.9,202.5,476.4,166,476.4,166L476.4,166z M209.4,314.4V187.9l121.6,63.5
		C330.9,251.4,209.4,314.4,209.4,314.4z"/>
</g>
</svg>
